<svg width="24" height="24" viewBox="0 0 24 24" fill="none" xmlns="http://www.w3.org/2000/svg">
<path d="M15 13V5C15 4.20435 14.6839 3.44129 14.1213 2.87868C13.5587 2.31607 12.7956 2 12 2C11.2044 2 10.4413 2.31607 9.87868 2.87868C9.31607 3.44129 9 4.20435 9 5V13C8.16047 13.6296 7.54033 14.5075 7.22743 15.5092C6.91453 16.5108 6.92473 17.5856 7.25658 18.5811C7.58844 19.5767 8.22512 20.4426 9.07645 21.0562C9.92778 21.6698 10.9506 22 12 22C13.0494 22 14.0722 21.6698 14.9236 21.0562C15.7749 20.4426 16.4116 19.5767 16.7434 18.5811C17.0753 17.5856 17.0855 16.5108 16.7726 15.5092C16.4597 14.5075 15.8395 13.6296 15 13ZM12 4C12.2652 4 12.5196 4.10536 12.7071 4.29289C12.8946 4.48043 13 4.73478 13 5V8H11V5C11 4.73478 11.1054 4.48043 11.2929 4.29289C11.4804 4.10536 11.7348 4 12 4Z" fill="black"/>
</svg>
